<?xml version="1.0" encoding="UTF-8"?>
<!DOCTYPE svg PUBLIC "-//W3C//DTD SVG 1.1//EN" "http://www.w3.org/Graphics/SVG/1.1/DTD/svg11.dtd">
<svg xmlns="http://www.w3.org/2000/svg" version="1.1" width="32px" height="32px" style="shape-rendering:geometricPrecision; text-rendering:geometricPrecision; image-rendering:optimizeQuality; fill-rule:evenodd; clip-rule:evenodd" xmlns:xlink="http://www.w3.org/1999/xlink">
<g><path style="opacity:0.069" fill="#080707" d="M 30.5,2.5 C 30.8333,2.5 31.1667,2.5 31.5,2.5C 31.5,11.1667 31.5,19.8333 31.5,28.5C 20.8333,28.5 10.1667,28.5 -0.5,28.5C -0.5,27.8333 -0.5,27.1667 -0.5,26.5C 9.83333,26.5 20.1667,26.5 30.5,26.5C 30.5,18.5 30.5,10.5 30.5,2.5 Z"/></g>
<g><path style="opacity:1" fill="#f0eeea" d="M 3.5,3.5 C 12.1667,3.5 20.8333,3.5 29.5,3.5C 29.5,6.5 29.5,9.5 29.5,12.5C 29.1667,12.5 28.8333,12.5 28.5,12.5C 19.8333,12.5 11.1667,12.5 2.5,12.5C 2.5,12.1667 2.5,11.8333 2.5,11.5C 11.1667,11.5 19.8333,11.5 28.5,11.5C 28.5,10.5 28.5,9.5 28.5,8.5C 20.3434,7.67058 12.0101,7.17058 3.5,7C 36.8267,6.16708 36.8267,5.66708 3.5,5.5C 3.5,4.83333 3.5,4.16667 3.5,3.5 Z"/></g>
<g><path style="opacity:0.992" fill="#d2d1cd" d="M 2.5,5.5 C 2.83333,5.5 3.16667,5.5 3.5,5.5C 36.8267,5.66708 36.8267,6.16708 3.5,7C 12.0101,7.17058 20.3434,7.67058 28.5,8.5C 19.7489,8.19679 11.0823,8.53013 2.5,9.5C 2.5,8.16667 2.5,6.83333 2.5,5.5 Z"/></g>
<g><path style="opacity:0.996" fill="#e0dfdb" d="M 28.5,8.5 C 28.5,9.5 28.5,10.5 28.5,11.5C 19.8333,11.5 11.1667,11.5 2.5,11.5C 2.5,10.8333 2.5,10.1667 2.5,9.5C 11.0823,8.53013 19.7489,8.19679 28.5,8.5 Z"/></g>
<g><path style="opacity:0.998" fill="#e9e9e3" d="M -0.5,3.5 C 0.833333,3.5 2.16667,3.5 3.5,3.5C 3.5,4.16667 3.5,4.83333 3.5,5.5C 3.16667,5.5 2.83333,5.5 2.5,5.5C 1.92217,4.45301 1.2555,4.61968 0.5,6C 1.13596,11.8429 1.13596,18.3429 0.5,25.5C 0.166667,25.5 -0.166667,25.5 -0.5,25.5C -0.5,18.1667 -0.5,10.8333 -0.5,3.5 Z"/></g>
<g><path style="opacity:1" fill="#f0eeea" d="M 28.5,12.5 C 28.8333,12.5 29.1667,12.5 29.5,12.5C 29.5,14.8333 29.5,17.1667 29.5,19.5C 29.1667,19.5 28.8333,19.5 28.5,19.5C 19.6506,19.8264 10.9839,19.493 2.5,18.5C 11.1667,18.5 19.8333,18.5 28.5,18.5C 28.5,17.5 28.5,16.5 28.5,15.5C 20.3434,14.6706 12.0101,14.1706 3.5,14C 12.0101,13.8294 20.3434,13.3294 28.5,12.5 Z"/></g>
<g><path style="opacity:0.992" fill="#d3d1cd" d="M 2.5,12.5 C 11.1667,12.5 19.8333,12.5 28.5,12.5C 20.3434,13.3294 12.0101,13.8294 3.5,14C 12.0101,14.1706 20.3434,14.6706 28.5,15.5C 19.8333,15.5 11.1667,15.5 2.5,15.5C 2.5,14.5 2.5,13.5 2.5,12.5 Z"/></g>
<g><path style="opacity:0.996" fill="#e1dfdb" d="M 2.5,15.5 C 11.1667,15.5 19.8333,15.5 28.5,15.5C 28.5,16.5 28.5,17.5 28.5,18.5C 19.8333,18.5 11.1667,18.5 2.5,18.5C 2.5,17.5 2.5,16.5 2.5,15.5 Z"/></g>
<g><path style="opacity:0.996" fill="#d1d6c8" d="M 2.5,5.5 C 2.5,6.83333 2.5,8.16667 2.5,9.5C 2.5,10.1667 2.5,10.8333 2.5,11.5C 2.5,11.8333 2.5,12.1667 2.5,12.5C 2.5,13.5 2.5,14.5 2.5,15.5C 2.5,16.5 2.5,17.5 2.5,18.5C 10.9839,19.493 19.6506,19.8264 28.5,19.5C 19.8333,20.1667 11.1667,20.8333 2.5,21.5C 2.5,22.8333 2.5,24.1667 2.5,25.5C 1.83333,25.5 1.16667,25.5 0.5,25.5C 1.13596,18.3429 1.13596,11.8429 0.5,6C 1.2555,4.61968 1.92217,4.45301 2.5,5.5 Z"/></g>
<g><path style="opacity:1" fill="#f0eeea" d="M 28.5,19.5 C 28.8333,19.5 29.1667,19.5 29.5,19.5C 29.7947,21.7354 29.4614,23.7354 28.5,25.5C 28.5,24.1667 28.5,22.8333 28.5,21.5C 19.8333,21.5 11.1667,21.5 2.5,21.5C 11.1667,20.8333 19.8333,20.1667 28.5,19.5 Z"/></g>
<g><path style="opacity:0.996" fill="#dedcd9" d="M 2.5,21.5 C 11.1667,21.5 19.8333,21.5 28.5,21.5C 28.5,22.8333 28.5,24.1667 28.5,25.5C 19.8333,25.5 11.1667,25.5 2.5,25.5C 2.5,24.1667 2.5,22.8333 2.5,21.5 Z"/></g>
<g><path style="opacity:0.832" fill="#cdcbc8" d="M -0.5,3.5 C -0.5,3.16667 -0.5,2.83333 -0.5,2.5C 9.83333,2.5 20.1667,2.5 30.5,2.5C 30.5,10.5 30.5,18.5 30.5,26.5C 20.1667,26.5 9.83333,26.5 -0.5,26.5C -0.5,26.1667 -0.5,25.8333 -0.5,25.5C -0.166667,25.5 0.166667,25.5 0.5,25.5C 1.16667,25.5 1.83333,25.5 2.5,25.5C 11.1667,25.5 19.8333,25.5 28.5,25.5C 29.4614,23.7354 29.7947,21.7354 29.5,19.5C 29.5,17.1667 29.5,14.8333 29.5,12.5C 29.5,9.5 29.5,6.5 29.5,3.5C 20.8333,3.5 12.1667,3.5 3.5,3.5C 2.16667,3.5 0.833333,3.5 -0.5,3.5 Z"/></g>
</svg>
